<svg xmlns="http://www.w3.org/2000/svg" xmlns:svg="http://www.w3.org/2000/svg" id="svg4" width="16" height="16" version="1.1"><path style="fill:#2e3436;fill-opacity:1;marker:none" id="path2" fill="#474747" d="M 7.906,0.094 C 7.381,0.065 6.868,0.377 6.469,1.063 L 0.219,12.655 C -0.315,13.62 0.267,15 1.313,15 h 13.156 c 0.982,0 1.903,-1.16 1.219,-2.344 L 9.375,1.125 C 8.976,0.479 8.432,0.122 7.906,0.094 Z M 9.001,5.062 V 9 c 0.007,0.528 -1,1 -1,1 0,0 -1.007,-0.472 -1,-1 V 5.062 c 0,-1.585438 2,-1.585438 2,0 z M 8,11 c 1.3333328,0 1.3333328,2 0,2 -1.3333328,0 -1.3333328,-2 0,-2 z" color="#bebebe" overflow="visible"/></svg>