<svg xmlns="http://www.w3.org/2000/svg" xmlns:svg="http://www.w3.org/2000/svg" xmlns:xlink="http://www.w3.org/1999/xlink" id="svg8" width="256" height="256" version="1.1" viewBox="0 0 256 256"><defs id="defs2"><filter style="color-interpolation-filters:sRGB" id="O"><feGaussianBlur id="n" stdDeviation="1.549"/></filter><radialGradient id="S" cx="43.31" cy="41.525" r="57.19" gradientTransform="matrix(0.53766449,0.42593113,-0.51806491,0.65396747,-327.26534,410.43421)" gradientUnits="userSpaceOnUse" xlink:href="#C"/><linearGradient id="C"><stop id="X" stop-color="#f3c300"/><stop id="Y" offset="1" stop-color="#e8ba00"/></linearGradient><linearGradient id="L" x1="107.01" x2="121.84" y1="63.86" y2="63.08" gradientTransform="translate(-368.80133,411.4933)" gradientUnits="userSpaceOnUse" xlink:href="#I"/><linearGradient id="I"><stop id="j" stop-color="#767676" stop-opacity="0"/><stop id="k" offset="1" stop-color="#545454"/></linearGradient><radialGradient id="Q" cx="90.66" cy="10.907" r="56.717" gradientTransform="matrix(1,0,0,0.84527961,-368.80133,420.01353)" gradientUnits="userSpaceOnUse" xlink:href="#H"/><linearGradient id="H"><stop id="h" stop-color="#eee"/><stop id="i" offset="1" stop-color="#e2e2e2"/></linearGradient><radialGradient id="M" cx="111.87" cy="72.02" r="57.32" gradientTransform="matrix(1,0,0,0.21170596,-368.80133,495.74891)" gradientUnits="userSpaceOnUse" xlink:href="#G"/><linearGradient id="G"><stop id="f" stop-color="#eee"/><stop id="g" offset="1" stop-color="#e6e6e6"/></linearGradient><linearGradient id="K" x1="7.188" x2="21.08" y1="63.08" y2="63.938" gradientTransform="translate(-368.80133,411.4933)" gradientUnits="userSpaceOnUse" xlink:href="#J"/><linearGradient id="J"><stop id="l" stop-color="#555"/><stop id="m" offset="1" stop-color="#767676" stop-opacity="0"/></linearGradient><linearGradient id="N" x2="0" y1="98.63" y2="119.17" gradientTransform="translate(-368.80133,411.4933)" gradientUnits="userSpaceOnUse" xlink:href="#F"/><linearGradient id="F"><stop id="d" stop-color="#f9f9f9"/><stop id="e" offset="1" stop-color="#d4d4d4"/></linearGradient><linearGradient id="P" x2="0" y1="99.31" y2="108.96" gradientTransform="translate(-368.80133,411.4933)" gradientUnits="userSpaceOnUse" xlink:href="#E"/><linearGradient id="E"><stop id="b" stop-color="#eee"/><stop id="c" offset="1" stop-color="#dbdbdb"/></linearGradient><linearGradient id="R" x2="0" y1="111.88" y2="117" gradientUnits="userSpaceOnUse" xlink:href="#D"/><linearGradient id="D"><stop id="Z" stop-color="#a2a2a2"/><stop id="a" offset="1" stop-color="#f2f2f2"/></linearGradient></defs><metadata id="metadata5"/><g id="layer1" transform="translate(0,-41)"><g id="g1012" transform="matrix(1.8936051,0,0,1.8936051,704.19696,-731.54448)"><path id="1" d="m -341.55133,419.6183 c -7.5738,0 -13.65625,5.67685 -13.65625,12.71875 l -5.6875,82.84375 h 0.0625 c -0.48262,1.31137 -0.78125,2.70459 -0.78125,4.1875 0,6.7233 5.43295,12.15625 12.15625,12.15625 h 90.37499 c 6.7233,0 12.125,-5.43295 12.125,-12.15625 0,-1.36474 -0.21327,-2.65258 -0.625,-3.875 h 0.125 l -7.5,-83.15625 c 0,-7.0419 -6.11371,-12.71875 -13.6875,-12.71875 z" style="opacity:.6;filter:url(#O)"/><path id="2" d="m -341.55133,417.9308 c -7.5738,0 -13.65625,5.67685 -13.65625,12.71875 l -0.28125,4 c 0.81025,-6.28824 6.57406,-11.125 13.65625,-11.125 h 73.59374 c 6.90229,0 12.55492,4.60103 13.59375,10.65625 l -0.3125,-3.53125 c 0,-7.0419 -6.11371,-12.71875 -13.6875,-12.71875 z m -19.34375,95.8125 c -0.43138,1.24033 -0.71875,2.54562 -0.71875,3.9375 0,6.7233 5.43295,12.15625 12.15625,12.15625 h 90.37499 c 6.28204,0 11.41642,-4.76789 12.0625,-10.875 l -114.21874,-0.4375 z m 113.68749,1.4375 0.25,2.65625 c 6.9e-4,-0.0536 0,-0.10252 0,-0.15625 0,-0.85827 -0.085,-1.69971 -0.25,-2.5 z" style="fill:#bbb"/><path id="3" d="m -341.55133,418.1183 c -7.5738,0 -13.65625,5.67685 -13.65625,12.71875 l -0.25,3.6875 c 0.87199,-6.22563 6.59119,-11 13.625,-11 h 73.59374 c 6.83074,0 12.43929,4.50633 13.5625,10.46875 l -0.28125,-3.15625 c 0,-7.0419 -6.11371,-12.71875 -13.6875,-12.71875 z m -18.8277,96.26133 c -0.41799,1.22108 -1.2348,2.1212 -1.2348,3.48867 0,6.7233 5.43295,12.15625 12.15625,12.15625 h 90.37499 c 6.35549,0 11.51535,-4.85219 12.0625,-11.0625 l -114.21874,-0.4375 z m 113.20269,1.17617 0.21875,2.3125 c 0,-0.7961 -0.0765,-1.56646 -0.21875,-2.3125 z" style="fill:#fff"/><path id="4" d="m -341.82047,423.52041 c -7.64301,0 -13.77054,5.65008 -13.77054,12.65877 l -5.64815,82.35886 114.38342,0.41303 -7.59303,-82.77189 c 0,-7.00869 -6.16145,-12.65877 -13.80446,-12.65877 z" style="fill:url(#S)"/><path id="5" d="m -341.55133,418.6183 c -7.5738,0 -13.65625,5.67685 -13.65625,12.71875 l -5.6875,82.84375 h 0.0625 c -0.48262,1.31137 -0.78125,2.70459 -0.78125,4.1875 0,6.7233 5.43295,12.15625 12.15625,12.15625 h 90.37499 c 6.7233,0 12.125,-5.43295 12.125,-12.15625 0,-1.36474 -0.21327,-2.65258 -0.625,-3.875 h 0.125 l -7.5,-83.15625 c 0,-7.0419 -6.11371,-12.71875 -13.6875,-12.71875 z" style="opacity:.369;fill:url(#L)"/><path id="6" d="m -341.55133,418.6183 c -7.5738,0 -13.65625,5.67685 -13.65625,12.71875 l -0.1875,2.875 c 1.01961,-6.07025 6.64862,-10.6875 13.5625,-10.6875 h 73.59374 c 6.66174,0 12.157,4.28812 13.46875,10.03125 l -0.1875,-2.21875 c 0,-7.0419 -6.11371,-12.71875 -13.6875,-12.71875 z" style="fill:url(#Q)"/><rect id="7" width="114.65" height="24.272" x="-361.605" y="506.243" rx="12.136" style="fill:url(#M)"/><path id="8" d="m -341.55133,418.6183 c -7.5738,0 -13.65625,5.67685 -13.65625,12.71875 l -5.6875,82.84375 h 0.0625 c -0.48262,1.31137 -0.78125,2.70459 -0.78125,4.1875 0,6.7233 5.43295,12.15625 12.15625,12.15625 h 90.37499 c 6.7233,0 12.125,-5.43295 12.125,-12.15625 0,-1.36474 -0.21327,-2.65258 -0.625,-3.875 h 0.125 l -7.5,-83.15625 c 0,-7.0419 -6.11371,-12.71875 -13.6875,-12.71875 z" style="opacity:.369;fill:url(#K)"/><rect id="9" width="112.8" height="20.54" x="-360.791" y="510.123" rx="10.27" style="fill:url(#N)"/><rect id="A" width="112.8" height="19.294" x="-360.791" y="510.803" rx="9.647" style="fill:url(#P)"/><g id="B" transform="translate(-366.80083,409.9123)"><path id="T" d="m 17.75,111.875 c -1.405166,0 -2.5625,1.15733 -2.5625,2.5625 0,1.40517 1.157334,2.5625 2.5625,2.5625 1.405166,0 2.5625,-1.15733 2.5625,-2.5625 0,-1.40517 -1.157334,-2.5625 -2.5625,-2.5625 z" style="fill:url(#R)"/><rect id="U" width="4" height="4" x="15.761" y="112.43" rx="2" style="fill:#00a7b3"/><rect id="V" width="2.342" height="2.342" x="16.59" y="113.26" rx="1.171" style="fill:#00c4cc"/><path id="W" d="m 17.75,113.8125 c -0.34226,0 -0.59375,0.26498 -0.59375,0.625 0,0.36002 0.233725,0.59375 0.59375,0.59375 0.360025,0 0.625,-0.25149 0.625,-0.59375 0,-0.34226 -0.28274,-0.625 -0.625,-0.625 z" style="fill:#a8dde0"/></g></g></g></svg>