<svg xmlns="http://www.w3.org/2000/svg" xmlns:svg="http://www.w3.org/2000/svg" id="svg8" width="256" height="256" version="1.1" viewBox="0 0 256 256"><defs id="defs2"><linearGradient id="linearGradient4187" x1="380" x2="377" y1="719.36" y2="321.36" gradientTransform="translate(-123.51,-301.69)" gradientUnits="userSpaceOnUse"><stop id="stop4183" offset="0" style="stop-color:#00f;stop-opacity:.22"/><stop id="stop4185" offset="1" style="stop-color:#ff2a2a;stop-opacity:.22"/></linearGradient><mask id="mask4562" maskUnits="userSpaceOnUse"><path id="path4564" d="m 372.06,314.69 c -116.81,0 -211.5,94.693 -211.5,211.5 0,116.807 94.693,211.5 211.5,211.5 116.807,0 211.47,-94.693 211.47,-211.5 0,-116.807 -94.662,-211.5 -211.47,-211.5 z m 0,134.34 c 42.608,0 77.125,34.548 77.125,77.156 0,42.608 -34.517,77.156 -77.125,77.156 -42.608,0 -77.156,-34.548 -77.156,-77.156 0,-42.608 34.548,-77.156 77.156,-77.156 z" style="color:#000;opacity:.66000001;fill:url(#radialGradient4566)"/></mask><radialGradient id="radialGradient4566" cx="371.94" cy="526.27" r="211.48" gradientTransform="matrix(1.09,0.026748,-0.024534,0.99977,-20.561,-9.8292)" gradientUnits="userSpaceOnUse"><stop id="stop4496" offset="0" style="stop-color:#fff"/><stop id="stop4502" offset=".764" style="stop-color:#fff;stop-opacity:.49804"/><stop id="stop4498" offset="1" style="stop-color:#fff;stop-opacity:0"/></radialGradient><filter style="color-interpolation-filters:sRGB" id="filter4037"><feGaussianBlur id="feGaussianBlur4039" stdDeviation="6.913"/></filter><filter style="color-interpolation-filters:sRGB" id="filter4390"><feGaussianBlur id="feGaussianBlur4392" stdDeviation="1.506"/></filter><filter style="color-interpolation-filters:sRGB" id="filter4355"><feGaussianBlur id="feGaussianBlur4357" stdDeviation=".645"/></filter><filter style="color-interpolation-filters:sRGB" id="filter4351"><feGaussianBlur id="feGaussianBlur4353" stdDeviation=".627"/></filter><filter style="color-interpolation-filters:sRGB" id="filter4347"><feGaussianBlur id="feGaussianBlur4349" stdDeviation=".663"/></filter><filter style="color-interpolation-filters:sRGB" id="filter4378"><feGaussianBlur id="feGaussianBlur4380" stdDeviation="2.274"/></filter><filter style="color-interpolation-filters:sRGB" id="filter4451"><feGaussianBlur id="feGaussianBlur4453" stdDeviation="1.513"/></filter><filter style="color-interpolation-filters:sRGB" id="filter4447"><feGaussianBlur id="feGaussianBlur4449" stdDeviation="1.492"/></filter><filter style="color-interpolation-filters:sRGB" id="filter4407"><feGaussianBlur id="feGaussianBlur4409" stdDeviation="2.258"/></filter><linearGradient id="linearGradient4710" x1="432" x2="57" y1="34.12" y2="313.12" gradientUnits="userSpaceOnUse"><stop id="stop4706" offset="0" style="stop-color:#fff"/><stop id="stop4708" offset="1" style="stop-color:#fff;stop-opacity:0"/></linearGradient><filter style="color-interpolation-filters:sRGB" id="filter4576" width="1.297" height="3.376" x="-.148" y="-1.188"><feGaussianBlur id="feGaussianBlur4578" stdDeviation="14.001"/></filter></defs><metadata id="metadata5"/><g id="layer1" transform="translate(0,-41)"><g id="g4712" transform="matrix(0.4878925,0,0,0.4878925,-51.121566,-100.19407)"><g id="g4588"><path id="path4568" d="m 372.06,314.69 c -116.81,0 -211.5,94.693 -211.5,211.5 0,116.807 94.693,211.5 211.5,211.5 116.807,0 211.47,-94.693 211.47,-211.5 0,-116.807 -94.662,-211.5 -211.47,-211.5 z m 0,184.06 c 15.142,0 27.406,12.296 27.406,27.438 0,15.142 -12.265,27.406 -27.406,27.406 -15.142,0 -27.438,-12.265 -27.438,-27.406 0,-15.142 12.296,-27.438 27.438,-27.438 z" style="color:#000;opacity:.43999999;fill:#ececec;stroke:#4d4d4d;stroke-width:6"/><path id="path2985" d="M 248.56,13 C 131.76,13 37.06,107.69 37.06,224.5 37.062,341.31 131.76,436 248.56,436 365.37,436 460.03,341.31 460.03,224.5 460.03,107.69 365.37,13 248.56,13 Z m -0.03,143 c 37.83,0 68.5,30.67 68.5,68.5 0,37.83 -30.67,68.5 -68.5,68.5 -37.83,0 -68.5,-30.67 -68.5,-68.5 0,-37.83 30.67,-68.5 68.5,-68.5 z" transform="translate(123.51,301.69)" style="color:#000;fill:#f2f2f2"/><path id="path4179" d="M 248.56,13 C 131.76,13 37.06,107.69 37.06,224.5 37.062,341.31 131.76,436 248.56,436 365.37,436 460.03,341.31 460.03,224.5 460.03,107.69 365.37,13 248.56,13 Z m -0.03,135 c 42.25,0 76.5,34.25 76.5,76.5 0,42.25 -34.25,76.5 -76.5,76.5 -42.25,0 -76.5,-34.25 -76.5,-76.5 0,-42.25 34.25,-76.5 76.5,-76.5 z" transform="translate(123.51,301.69)" style="color:#000;opacity:.33000004;fill:url(#linearGradient4187)"/><path id="path2987" d="m 372.05,465.23 c -33.652,0 -60.953,27.301 -60.953,60.953 0,33.652 27.301,60.953 60.953,60.953 33.652,0 60.942,-27.301 60.942,-60.953 0,-33.652 -27.29,-60.953 -60.942,-60.953 z m 0,1.6989 c 32.733,0 59.243,26.52 59.243,59.254 0,32.733 -26.509,59.254 -59.243,59.254 -32.733,0 -59.254,-26.52 -59.254,-59.254 0,-32.733 26.52,-59.254 59.254,-59.254 z" style="color:#000;text-indent:0;text-transform:none;opacity:.43999999;fill:#ccc"/><path id="path3772" d="m 372.05,447.78 c -43.261,0 -78.4,35.138 -78.4,78.4 0,43.261 35.138,78.4 78.4,78.4 43.261,0 78.386,-35.138 78.386,-78.4 0,-43.261 -35.125,-78.4 -78.386,-78.4 z m 0,5.9292 c 40.059,0 72.457,32.412 72.457,72.471 0,40.059 -32.398,72.471 -72.457,72.471 -40.059,0 -72.471,-32.412 -72.471,-72.471 0,-40.059 32.412,-72.471 72.471,-72.471 z" style="color:#000;text-indent:0;text-transform:none;opacity:.43999999;fill:#000"/><path id="path3778" d="m 372.05,455.43 c -39.058,0 -70.745,31.687 -70.745,70.745 0,39.058 31.687,70.745 70.745,70.745 39.058,0 70.732,-31.687 70.732,-70.745 0,-39.058 -31.674,-70.745 -70.732,-70.745 z m 0,1.9718 c 37.992,0 68.76,30.781 68.76,68.773 0,37.992 -30.768,68.773 -68.76,68.773 -37.992,0 -68.773,-30.781 -68.773,-68.773 0,-37.992 30.781,-68.773 68.773,-68.773 z" style="color:#000;text-indent:0;text-transform:none;opacity:.43999999;fill:#536c53"/><path id="path3784" d="m 372.06,314.19 c -117.08,0 -212,94.923 -212,212 0,117.077 94.923,212 212,212 117.077,0 211.97,-94.923 211.97,-212 0,-117.077 -94.892,-212 -211.97,-212 z m 0,1 c 116.54,0 210.97,94.463 210.97,211 0,116.537 -94.432,211 -210.97,211 -116.538,0 -211,-94.463 -211,-211 0,-116.537 94.463,-211 211,-211 z m 0,183.06 c -15.412,0 -27.938,12.525 -27.938,27.938 0,15.412 12.526,27.906 27.938,27.906 15.412,0 27.906,-12.495 27.906,-27.906 0,-15.412 -12.494,-27.938 -27.906,-27.938 z m 0,1 c 14.871,0 26.906,12.066 26.906,26.938 0,14.872 -12.035,26.906 -26.906,26.906 -14.872,0 -26.938,-12.035 -26.938,-26.906 0,-14.871 12.067,-26.938 26.938,-26.938 z" style="color:#000;text-indent:0;text-transform:none;opacity:.66000001;fill:#3e4837"/><path id="path3790" d="m 372.05,467.54 c -32.382,0 -58.644,26.262 -58.644,58.644 0,32.382 26.262,58.644 58.644,58.644 32.382,0 58.633,-26.262 58.633,-58.644 0,-32.382 -26.251,-58.644 -58.633,-58.644 z m 0,0.9652 c 31.859,0 57.668,25.82 57.668,57.678 0,31.859 -25.809,57.678 -57.668,57.678 -31.859,0 -57.678,-25.82 -57.678,-57.678 0,-31.859 25.82,-57.678 57.678,-57.678 z" style="color:#000;text-indent:0;text-transform:none;opacity:.22000002;fill:#fff"/><g id="g4504" mask="url(#mask4562)"><g id="g4459"><path id="path3917" d="M 388.64,525.6 604,507.993 l -1.0453,-9.9452 z" style="opacity:.66000001;fill:#4154ff;fill-rule:evenodd;filter:url(#filter4037)"/><path id="path3921" d="m 388.64,525.6 214.14,-28.854 -1.5643,-9.8769 z" style="opacity:.66000001;fill:#4198ff;fill-rule:evenodd;filter:url(#filter4037)"/><path id="path3925" d="m 388.64,525.6 212.34,-40.022 -2.0791,-9.7815 z" style="opacity:.66000001;fill:#41d1ff;fill-rule:evenodd;filter:url(#filter4037)"/><path id="path3929" d="m 388.64,525.6 209.95,-51.08 -2.5882,-9.6593 z" style="opacity:.66000001;fill:#41ffd1;fill-rule:evenodd;filter:url(#filter4037)"/><path id="path3941" d="m 388.64,525.6 199.38,-83.295 -4.0674,-9.1355 z" style="opacity:.66000001;fill:#e0ff41;fill-rule:evenodd;filter:url(#filter4037)"/><path id="path3945" d="m 388.64,525.6 194.74,-93.615 -4.5399,-8.9101 z" style="opacity:.66000001;fill:#ffd951;fill-rule:evenodd;filter:url(#filter4037)"/><path id="path3949" d="m 388.64,525.6 189.58,-103.68 -5,-8.6603 z" style="opacity:.66000001;fill:#ff8441;fill-rule:evenodd;filter:url(#filter4037)"/><path id="path3953" d="m 388.64,525.6 183.89,-113.46 -5.4464,-8.3867 z" style="opacity:.66000001;fill:#ff4141;fill-rule:evenodd;filter:url(#filter4037)"/><path id="path3967" d="m 388.64,526.76 210.26,49.804 2.0791,-9.7815 z" style="opacity:.66000001;fill:#41d1ff;fill-rule:evenodd;filter:url(#filter4037)"/><path id="path3969" d="m 388.64,526.76 207.36,60.739 2.5882,-9.6593 z" style="opacity:.66000001;fill:#41ffd1;fill-rule:evenodd;filter:url(#filter4037)"/><path id="path3971" d="m 388.64,526.76 203.9,71.509 3.0902,-9.5106 z" style="opacity:.66000001;fill:#41ff46;fill-rule:evenodd;filter:url(#filter4037)"/><path id="path3973" d="m 388.64,526.76 199.88,82.082 3.5837,-9.3358 z" style="opacity:.66000001;fill:#a6ff41;fill-rule:evenodd;filter:url(#filter4037)"/><path id="path3975" d="m 388.64,526.76 195.31,92.43 4.0674,-9.1355 z" style="opacity:.66000001;fill:#e0ff41;fill-rule:evenodd;filter:url(#filter4037)"/><path id="path3977" d="m 388.64,526.76 190.2,102.53 4.5399,-8.9101 z" style="opacity:.66000001;fill:#ffd951;fill-rule:evenodd;filter:url(#filter4037)"/><path id="path3979" d="m 388.64,526.76 184.58,112.34 5,-8.6603 z" style="opacity:.66000001;fill:#ff8441;fill-rule:evenodd;filter:url(#filter4037)"/><path id="path3981" d="m 388.64,526.76 178.45,121.85 5.4464,-8.3867 z" style="opacity:.66000001;fill:#ff4141;fill-rule:evenodd;filter:url(#filter4037)"/><g id="g4365" style="filter:url(#filter4390)"><path id="path4335" d="m 373.35,529.1 222.8,33.95 1.2867,-9.9169 z" style="fill:#fff;fill-rule:evenodd;filter:url(#filter4355)"/><path id="path4339" d="m 371.94,529.1 224.41,25.485 0.90818,-9.9587 z" style="fill:#fff;fill-rule:evenodd;filter:url(#filter4351)"/><path id="path4343" d="m 371.94,529.1 223.59,-31.86 -1.63,-9.87 z" style="fill:#fff;fill-rule:evenodd;filter:url(#filter4347)"/></g><g id="g4370" transform="matrix(0.98051,0.19645,-0.19645,0.98051,111.22,-62.437)" style="opacity:.66000001;filter:url(#filter4378)"><path id="path4372" d="m 373.35,529.1 222.8,33.95 1.2867,-9.9169 z" style="fill:#fff;fill-rule:evenodd;filter:url(#filter4355)"/><path id="path4374" d="m 371.94,529.1 224.41,25.485 0.90818,-9.9587 z" style="fill:#fff;fill-rule:evenodd;filter:url(#filter4351)"/><path id="path4376" d="m 371.94,529.1 223.59,-31.86 -1.63,-9.87 z" style="fill:#fff;fill-rule:evenodd;filter:url(#filter4347)"/></g></g><g id="g4411"><path id="path4047" d="m 372.49,526.16 215.36,-17.607 -1.0453,-9.9452 z" transform="matrix(-1,0,0,1,727.95,-0.55949)" style="opacity:.66000001;fill:#4154ff;fill-rule:evenodd;filter:url(#filter4037)"/><path id="path4049" d="m 372.49,526.16 214.14,-28.854 -1.5643,-9.8769 z" transform="matrix(-1,0,0,1,727.95,-0.55949)" style="opacity:.66000001;fill:#4198ff;fill-rule:evenodd;filter:url(#filter4037)"/><path id="path4051" d="m 372.49,526.16 212.34,-40.022 -2.0791,-9.7815 z" transform="matrix(-1,0,0,1,727.95,-0.55949)" style="opacity:.66000001;fill:#41d1ff;fill-rule:evenodd;filter:url(#filter4037)"/><path id="path4053" d="m 372.49,526.16 209.95,-51.08 -2.5882,-9.6593 z" transform="matrix(-1,0,0,1,727.95,-0.55949)" style="opacity:.66000001;fill:#41ffd1;fill-rule:evenodd;filter:url(#filter4037)"/><path id="path4055" d="m 372.49,526.16 206.99,-61.998 -3.0902,-9.5106 z" transform="matrix(-1,0,0,1,727.95,-0.55949)" style="opacity:.66000001;fill:#41ff46;fill-rule:evenodd;filter:url(#filter4037)"/><path id="path4057" d="m 372.49,526.16 203.46,-72.746 -3.5837,-9.3358 z" transform="matrix(-1,0,0,1,727.95,-0.55949)" style="opacity:.66000001;fill:#a6ff41;fill-rule:evenodd;filter:url(#filter4037)"/><path id="path4059" d="m 372.49,526.16 199.38,-83.295 -4.0674,-9.1355 z" transform="matrix(-1,0,0,1,727.95,-0.55949)" style="opacity:.66000001;fill:#e0ff41;fill-rule:evenodd;filter:url(#filter4037)"/><path id="path4061" d="m 372.49,526.16 194.74,-93.615 -4.5399,-8.9101 z" transform="matrix(-1,0,0,1,727.95,-0.55949)" style="opacity:.66000001;fill:#ffd951;fill-rule:evenodd;filter:url(#filter4037)"/><path id="path4063" d="m 372.49,526.16 189.58,-103.68 -5,-8.6603 z" transform="matrix(-1,0,0,1,727.95,-0.55949)" style="opacity:.66000001;fill:#ff8441;fill-rule:evenodd;filter:url(#filter4037)"/><path id="path4065" d="M 372.49,526.16 556.38,412.7 550.9336,404.3133 Z" transform="matrix(-1,0,0,1,727.95,-0.55949)" style="opacity:.66000001;fill:#ff4141;fill-rule:evenodd;filter:url(#filter4037)"/><path id="path4073" d="m 372.49,527.32 212.58,38.731 1.5643,-9.8769 z" transform="matrix(-1,0,0,1,727.95,-0.55949)" style="opacity:.66000001;fill:#4198ff;fill-rule:evenodd;filter:url(#filter4037)"/><path id="path4075" d="m 372.49,527.32 210.26,49.804 2.0791,-9.7815 z" transform="matrix(-1,0,0,1,727.95,-0.55949)" style="opacity:.66000001;fill:#41d1ff;fill-rule:evenodd;filter:url(#filter4037)"/><path id="path4077" d="m 372.49,527.32 207.36,60.739 2.5882,-9.6593 z" transform="matrix(-1,0,0,1,727.95,-0.55949)" style="opacity:.66000001;fill:#41ffd1;fill-rule:evenodd;filter:url(#filter4037)"/><path id="path4079" d="m 372.49,527.32 203.9,71.509 3.0902,-9.5106 z" transform="matrix(-1,0,0,1,727.95,-0.55949)" style="opacity:.66000001;fill:#41ff46;fill-rule:evenodd;filter:url(#filter4037)"/><path id="path4081" d="m 372.49,527.32 199.88,82.082 3.5837,-9.3358 z" transform="matrix(-1,0,0,1,727.95,-0.55949)" style="opacity:.66000001;fill:#a6ff41;fill-rule:evenodd;filter:url(#filter4037)"/><path id="path4083" d="m 372.49,527.32 195.31,92.43 4.0674,-9.1355 z" transform="matrix(-1,0,0,1,727.95,-0.55949)" style="opacity:.66000001;fill:#e0ff41;fill-rule:evenodd;filter:url(#filter4037)"/><path id="path4085" d="m 372.49,527.32 190.2,102.53 4.5399,-8.9101 z" transform="matrix(-1,0,0,1,727.95,-0.55949)" style="opacity:.66000001;fill:#ffd951;fill-rule:evenodd;filter:url(#filter4037)"/><path id="path4087" d="m 372.49,527.32 184.58,112.34 5,-8.6603 z" transform="matrix(-1,0,0,1,727.95,-0.55949)" style="opacity:.66000001;fill:#ff8441;fill-rule:evenodd;filter:url(#filter4037)"/><path id="path4089" d="m 372.49,527.32 178.45,121.85 5.4464,-8.3867 z" transform="matrix(-1,0,0,1,727.95,-0.55949)" style="opacity:.66000001;fill:#ff4141;fill-rule:evenodd;filter:url(#filter4037)"/><g id="g4394"><path id="path4359" d="m 373.35,529.1 222.8,33.95 1.2867,-9.9169 z" transform="matrix(-0.96183,-0.27364,0.27364,-0.96183,584.89,1139.8)" style="fill:#fff;fill-rule:evenodd;filter:url(#filter4451)"/><path id="path4361" d="m 371.94,529.1 224.41,25.485 0.90818,-9.9587 z" transform="matrix(-0.96183,-0.27364,0.27364,-0.96183,584.89,1139.8)" style="fill:#fff;fill-rule:evenodd;filter:url(#filter4447)"/></g><g id="g4399" transform="matrix(0.98041,-0.19699,0.19699,0.98041,-97.223,83.98)" style="opacity:.66000001;filter:url(#filter4407)"><path id="path4401" d="m 373.35,529.1 222.8,33.95 1.2867,-9.9169 z" transform="matrix(-0.96183,-0.27364,0.27364,-0.96183,584.89,1139.8)" style="fill:#fff;fill-rule:evenodd;filter:url(#filter4355)"/><path id="path4403" d="m 371.94,529.1 224.41,25.485 0.90818,-9.9587 z" transform="matrix(-0.96183,-0.27364,0.27364,-0.96183,584.89,1139.8)" style="fill:#fff;fill-rule:evenodd;filter:url(#filter4351)"/><path id="path4405" d="m 371.94,529.1 223.59,-31.86 -1.63,-9.87 z" transform="matrix(-0.96183,-0.27364,0.27364,-0.96183,584.89,1139.8)" style="fill:#fff;fill-rule:evenodd;filter:url(#filter4347)"/></g></g></g><path id="path4699" d="m 248.56,13 c -116.8,0 -211.5,94.69 -211.5,211.5 0.002,19.12 2.559,37.63 7.315,55.25 l 137.5,-39.5 c -1.2,-5.06 -1.85,-10.33 -1.85,-15.75 0,-37.83 30.67,-68.5 68.5,-68.5 30.14,0 55.71,19.46 64.88,46.5 L 450.935,163 C 424.595,76.185 343.975,13 248.555,13 Z" transform="translate(123.51,301.69)" style="color:#000;fill:url(#linearGradient4710)"/></g><ellipse id="path4574" cx="379.009" cy="765.277" rx="113.137" ry="14.142" transform="matrix(0.93254,0,0,0.55569,25.569,340.02)" style="color:#000;opacity:.22000002;fill:#000;filter:url(#filter4576)"/></g></g></svg>